<?xml version="1.0" encoding="utf-8"?>
<!-- Generator: Adobe Illustrator 25.1.0, SVG Export Plug-In . SVG Version: 6.00 Build 0)  -->
<svg version="1.1" id="Layer_1" xmlns="http://www.w3.org/2000/svg" xmlns:xlink="http://www.w3.org/1999/xlink" x="0px" y="0px"
	 viewBox="0 0 360 143.6" style="enable-background:new 0 0 360 143.6;" xml:space="preserve">
<style type="text/css">
	.st0{fill:#FFFFFF;}
</style>
<g>
	<path class="st0" d="M242.1,44.9c-0.2-4.3-1.3-8.6-2.8-12.7c-1.8-5-4.4-9.6-7.5-13.9c-2.3-3.2-5.1-5.9-7.9-8.6
		c-1.6-1.5-5-4.3-9.8-7.1c-1.2-0.7-2.2-1.2-2.9-1.6c3.8,2.7,13.5,10.4,18.7,24.3c4.8,12.8,3.2,23.9,2.3,28.6
		c-0.2-2.8-0.4-5.6-0.8-8.4c-0.4-2.8-1.2-5.6-2.1-8.4c-0.9-2.7-2-5.3-3.5-7.8c-1.4-2.4-3-4.9-4.8-7.1c-2.8-3.4-5.3-5.7-6-6.3
		c-2.4-2.1-4.8-3.7-6.9-4.9c3.3,3,8.4,8.3,12.2,16.5c0.9,2,4.2,9.4,4.6,19.6c0.6,14.3-3.9,26.8-13.6,37.4c7.3-9.9,10.5-21,9.3-33.2
		c-1.2-12.2-6.4-22.4-15.9-30.3c0.4,0.8,1.1,2.1,1.8,3.6c1.7,3.4,3.2,6.4,4.3,10.5c0.7,2.5,1.2,5,1.7,7.6c0.2,1,0.2,2.1,0.3,3.2
		c0.1,2,0.2,4,0.2,6c0,3.1-0.4,6.2-0.9,9.3c-0.5,3.1-1.3,6-2.3,9c-1.6,4.6-4,8.9-7,12.8c-2.6,3.5-5.8,6.3-9.5,8.5
		c-2.5,1.5-5.3,2.6-8.2,3.1c-1.7,0.3-3.4,0.5-5.2,0.5c-1.7,0-3.5-0.2-5.2-0.5c-2.9-0.5-5.7-1.6-8.2-3.1c-3.7-2.2-6.9-5-9.5-8.5
		c-3-3.9-5.4-8.2-7-12.8c-1-2.9-1.8-5.9-2.3-9c-0.5-3.1-0.9-6.2-0.9-9.3c0-2,0.1-4,0.2-6c0.1-1.1,0.1-2.1,0.3-3.2
		c0.5-2.5,1-5.1,1.7-7.6c1.1-4.1,2.7-7,4.3-10.5c0.7-1.5,1.4-2.8,1.8-3.6c-9.4,7.9-14.6,18.1-15.9,30.3c-1.2,12.2,2,23.3,9.3,33.2
		c-9.7-10.6-14.2-23.2-13.6-37.4c0.5-10.2,3.7-17.5,4.6-19.6c3.8-8.1,8.9-13.5,12.2-16.5c-2.1,1.2-4.4,2.8-6.9,4.9
		c-0.7,0.6-3.3,2.9-6,6.3c-1.8,2.2-3.3,4.6-4.8,7.1c-1.5,2.5-2.6,5.1-3.5,7.8c-0.9,2.7-1.7,5.5-2.1,8.4c-0.4,2.8-0.5,5.6-0.8,8.4
		c-0.9-4.7-2.5-15.8,2.3-28.6c5.2-13.9,14.9-21.6,18.7-24.3c-0.7,0.4-1.8,0.9-2.9,1.6c-4.8,2.8-8.2,5.6-9.8,7.1
		c-2.9,2.6-5.6,5.4-7.9,8.6c-3.1,4.3-5.7,8.9-7.5,13.9c-1.5,4.1-2.6,8.3-2.8,12.7c-0.2,4-0.4,8,0.4,12c0.5,2.4,0.9,4.9,1.6,7.2
		c1.2,4.2,3,8.1,5.3,11.8c1.8,2.9,3.7,5.7,6,8.1c2.9,3.1,6,6.1,9.5,8.6c4.8,3.4,9.9,6.2,15.5,8.3c3.9,1.4,7.9,2.6,12,3.2
		c2.5,0.3,4.9,0.8,7.4,0.9c1.5,0,3,0.1,4.5,0.1c1.5,0,3-0.1,4.5-0.1c2.5-0.1,4.9-0.6,7.4-0.9c4.1-0.6,8.1-1.7,12-3.2
		c5.5-2,10.7-4.8,15.5-8.3c3.5-2.5,6.6-5.5,9.5-8.6c2.3-2.5,4.3-5.2,6-8.1c2.2-3.7,4.1-7.6,5.3-11.8c0.7-2.4,1.1-4.8,1.6-7.2
		C242.5,53,242.3,48.9,242.1,44.9z"/>
	<g>
		<path class="st0" d="M8.4,132.3c1.9,0.1,3.4,0.6,4.3,1.5c0.9,0.8,1.4,1.9,1.4,3.1c0,1.1-0.3,2-1,2.8c-0.6,0.8-1.5,1.3-2.5,1.5
			s-2.3,0.4-4,0.4H0v-0.6h0.7c0.7,0,1.2-0.1,1.5-0.3c0.3-0.2,0.5-0.5,0.5-0.9c0.1-0.4,0.1-1.3,0.1-2.7v-8.3c0-1.4,0-2.3-0.1-2.7
			c-0.1-0.4-0.2-0.7-0.5-0.8C1.9,125,1.4,125,0.5,125H0.2v-0.6l2.8-0.1l3.2-0.1c4.7,0,7,1.3,7,4c0,1.1-0.4,2-1.2,2.7
			C11.2,131.6,10,132.1,8.4,132.3z M5.3,132.1c0.2,0,0.4,0,0.5,0c1.8,0,3.1-0.3,3.7-0.9c0.7-0.6,1-1.5,1-2.8c0-0.9-0.1-1.6-0.4-2.1
			c-0.3-0.5-0.7-0.9-1.2-1.1c-0.5-0.3-1.4-0.4-2.7-0.4c-0.3,0-0.7,0-1,0V132.1z M5.3,132.7v3.8c0,1.6,0,2.7,0.1,3.1
			c0.1,0.4,0.2,0.8,0.5,1c0.3,0.2,0.8,0.3,1.5,0.3c1.3,0,2.4-0.3,3-1s1-1.7,1-3.1c0-1.4-0.4-2.5-1.1-3.1c-0.8-0.7-2.1-1-4-1
			C6,132.7,5.6,132.7,5.3,132.7z"/>
		<path class="st0" d="M40.6,124.4h5.7v0.6c-0.8,0.1-1.3,0.2-1.7,0.5c-0.4,0.3-0.6,0.6-0.7,1c-0.1,0.4-0.1,1.1-0.1,2.1v5.7
			c0,1.5-0.1,2.5-0.2,3.2c-0.1,0.7-0.4,1.4-1,2.1c-0.5,0.7-1.3,1.2-2.3,1.6c-1,0.4-2.1,0.6-3.4,0.6c-1.5,0-2.8-0.3-3.9-0.8
			c-1.1-0.5-1.8-1.2-2.3-2c-0.5-0.8-0.7-1.9-0.7-3.3l0-1.8v-5.3c0-1.4,0-2.2-0.1-2.6c-0.1-0.4-0.2-0.7-0.5-0.8
			c-0.3-0.2-0.8-0.2-1.7-0.2h-0.4v-0.6h7.8v0.6h-0.3c-0.8,0-1.4,0.1-1.7,0.2c-0.3,0.1-0.4,0.4-0.5,0.8c-0.1,0.4-0.1,1.3-0.1,2.7v5.4
			c0,1.9,0.1,3.2,0.3,4c0.2,0.8,0.7,1.5,1.5,2.1c0.8,0.6,1.9,0.9,3.2,0.9c1,0,2-0.2,2.8-0.6c0.9-0.4,1.5-0.9,1.9-1.5
			c0.4-0.6,0.7-1.2,0.8-1.8c0.1-0.6,0.1-1.6,0.1-2.9v-5.8c0-1-0.1-1.6-0.2-2c-0.1-0.4-0.3-0.7-0.7-0.9c-0.4-0.2-0.9-0.4-1.7-0.4
			V124.4z"/>
		<path class="st0" d="M73.6,135.1h0.5v6h-0.5c-0.2-0.7-0.4-1.3-0.8-1.8c-1.5,1.7-3.4,2.6-5.8,2.6c-2.5,0-4.5-0.8-6.1-2.3
			c-1.6-1.6-2.4-3.6-2.4-6.2c0-1.7,0.4-3.3,1.1-4.8c0.7-1.5,1.7-2.6,3-3.3c1.3-0.7,2.7-1.1,4.3-1.1c1.3,0,2.4,0.3,3.5,0.8
			c1,0.5,1.8,1.1,2.3,1.7c0.4-0.7,0.6-1.5,0.7-2.2h0.6l0.2,6.5h-0.5c-0.4-2.3-1.2-3.9-2.3-4.8c-1.2-0.9-2.5-1.4-3.9-1.4
			c-1.8,0-3.2,0.7-4.3,2.2c-1.1,1.5-1.6,3.5-1.6,6.3c0,2.6,0.6,4.5,1.7,5.9c1.2,1.4,2.6,2.1,4.3,2.1c0.9,0,1.9-0.2,2.8-0.7
			c1-0.4,1.7-1.2,2.3-2.3C73.1,137.1,73.5,136.1,73.6,135.1z"/>
		<path class="st0" d="M90,133.1l5.2-4.7c1.2-1.1,1.8-1.9,1.8-2.3c0-0.7-0.6-1.1-1.8-1.1v-0.6h6.5v0.6c-0.5,0-1.1,0.1-1.6,0.3
			c-0.5,0.2-1,0.5-1.5,0.9c-0.4,0.4-1.3,1.1-2.5,2.2l-3.1,2.9l6.4,6.5c1.5,1.5,2.4,2.4,2.9,2.7c0.5,0.3,1.1,0.5,1.9,0.5v0.6h-8.9
			v-0.6h0.3c1,0,1.6-0.1,1.8-0.2c0.2-0.2,0.4-0.4,0.4-0.6c0-0.4-0.6-1.1-1.8-2.4l-4.8-4.9l-1.2,1.1v3.1c0,1.3,0,2.2,0.1,2.6
			c0.1,0.4,0.2,0.7,0.5,0.9c0.3,0.2,0.8,0.3,1.6,0.3h0.3v0.6h-7.7v-0.6h0.5c0.7,0,1.2-0.1,1.5-0.3c0.3-0.2,0.5-0.5,0.5-0.9
			c0.1-0.4,0.1-1.3,0.1-2.7v-8.4c0-1.4,0-2.3-0.1-2.7c-0.1-0.4-0.3-0.6-0.5-0.8C86.6,125,86,125,85,125v-0.6h7.6v0.6h-0.3
			c-0.8,0-1.4,0.1-1.7,0.2c-0.3,0.1-0.4,0.4-0.5,0.8c-0.1,0.4-0.1,1.3-0.1,2.7V133.1z"/>
		<path class="st0" d="M132.2,133.5v3.6c0,1.3,0,2.2,0.1,2.6c0.1,0.4,0.2,0.7,0.5,0.9c0.3,0.2,0.8,0.3,1.6,0.3h0.6v0.6H127v-0.6h0.5
			c0.7,0,1.2-0.1,1.5-0.3c0.3-0.2,0.5-0.5,0.5-0.9c0.1-0.4,0.1-1.3,0.1-2.7v-8.4c0-1.4,0-2.2-0.1-2.6c-0.1-0.4-0.2-0.7-0.5-0.8
			c-0.3-0.2-0.8-0.2-1.7-0.2H127v-0.6l2.1-0.1c1.7-0.1,3.1-0.1,4-0.1c1.8,0,3.1,0.1,4.1,0.4c1,0.3,1.7,0.8,2.3,1.5
			c0.6,0.7,0.9,1.6,0.9,2.7c0,0.9-0.2,1.8-0.6,2.5c-0.4,0.7-1,1.3-1.8,1.6c-0.8,0.4-2.1,0.6-4.1,0.6H132.2z M132.2,132.8h1.2
			c1,0,1.8-0.1,2.4-0.3c0.6-0.2,1.1-0.6,1.5-1.2c0.4-0.6,0.6-1.4,0.6-2.3c0-1.4-0.3-2.5-1-3.1c-0.7-0.7-1.8-1-3.4-1
			c-0.6,0-1,0-1.3,0.1V132.8z"/>
		<path class="st0" d="M151.4,132.8c0-2.6,0.9-4.8,2.7-6.4s4-2.4,6.6-2.4c2.7,0,4.9,0.8,6.7,2.4c1.8,1.6,2.7,3.7,2.7,6.5
			c0,2.7-0.9,4.8-2.6,6.4c-1.7,1.6-4,2.5-6.8,2.5c-2.7,0-5-0.8-6.7-2.5C152.2,137.7,151.4,135.6,151.4,132.8z M154.3,132.9
			c0,2.8,0.5,4.8,1.6,6.2s2.7,2.1,4.9,2.1c1.9,0,3.5-0.7,4.6-2.1c1.1-1.4,1.7-3.4,1.7-6.2c0-2.7-0.6-4.7-1.7-6.1
			c-1.1-1.4-2.7-2.1-4.8-2.1c-2.1,0-3.6,0.7-4.7,2.1C154.8,128.2,154.3,130.2,154.3,132.9z"/>
		<path class="st0" d="M196.5,141.9l-12.1-16.1v11.9c0,1,0,1.6,0.1,1.9c0.1,0.3,0.4,0.6,0.8,0.9c0.5,0.3,1.1,0.4,2,0.4v0.6H181v-0.6
			c0.8-0.1,1.4-0.2,1.9-0.4c0.4-0.2,0.7-0.5,0.8-0.8c0.1-0.3,0.1-0.9,0.1-2v-9.1c0-1.3-0.1-2.2-0.2-2.6c-0.1-0.4-0.3-0.7-0.6-0.9
			c-0.3-0.1-0.9-0.2-1.8-0.2v-0.6h5.1l10.1,13.4v-10.2c0-0.8-0.1-1.3-0.2-1.6c-0.2-0.3-0.5-0.5-1-0.7c-0.5-0.2-1.1-0.3-1.7-0.3v-0.6
			h6.2v0.6c-0.7,0.1-1.3,0.2-1.7,0.4c-0.4,0.2-0.7,0.5-0.8,0.8c-0.1,0.3-0.2,0.8-0.2,1.6v14.2H196.5z"/>
		<path class="st0" d="M210.9,124.5l2.8-0.1c2.3-0.1,3.9-0.2,4.7-0.2c2.5,0,4.5,0.4,5.9,1.2c1.4,0.8,2.5,1.8,3.2,3.2
			c0.7,1.3,1,2.9,1,4.6c0,1.3-0.2,2.4-0.6,3.4c-0.4,1-0.9,1.9-1.6,2.6c-0.7,0.7-1.4,1.2-2.3,1.6c-0.9,0.4-1.7,0.6-2.5,0.7
			c-0.8,0.1-1.9,0.1-3.3,0.1h-7.6v-0.6h0.7c0.7,0,1.2-0.1,1.5-0.3c0.3-0.2,0.5-0.5,0.5-0.9c0.1-0.4,0.1-1.3,0.1-2.7v-8.3
			c0-1.4,0-2.2-0.1-2.6c-0.1-0.4-0.2-0.7-0.5-0.8c-0.3-0.1-0.8-0.2-1.7-0.2h-0.5V124.5z M216.2,124.9v11.4c0,1.7,0,2.8,0.1,3.3
			c0.1,0.5,0.3,0.8,0.6,1c0.3,0.2,1,0.3,2,0.3c1.5,0,2.7-0.2,3.7-0.6c1-0.4,1.8-1.2,2.4-2.4c0.6-1.2,1-2.7,1-4.6
			c0-1.4-0.2-2.7-0.6-3.9c-0.4-1.1-0.9-2.1-1.6-2.8c-0.7-0.7-1.5-1.2-2.3-1.5c-0.9-0.3-1.9-0.4-3.3-0.4
			C217.5,124.8,216.9,124.8,216.2,124.9z"/>
		<path class="st0" d="M270.1,124.4l0.1,4.3h-0.6c-0.1-0.9-0.4-1.7-0.8-2.3c-0.4-0.6-0.8-1-1.3-1.1c-0.4-0.2-1.2-0.2-2.3-0.2h-3.3
			v7.3h1.6c1,0,1.7-0.2,2.1-0.5c0.3-0.3,0.5-1.1,0.5-2.1h0.6v6h-0.6c0-0.7-0.1-1.3-0.2-1.7c-0.1-0.4-0.4-0.7-0.7-0.9
			c-0.3-0.2-0.9-0.2-1.7-0.2h-1.6v4.3c0,1.3,0,2.2,0.1,2.6c0.1,0.4,0.2,0.7,0.5,0.9c0.3,0.2,0.8,0.3,1.6,0.3h0.6v0.6h-8v-0.6h0.5
			c0.7,0,1.2-0.1,1.5-0.3c0.3-0.2,0.5-0.5,0.5-0.9c0.1-0.4,0.1-1.3,0.1-2.7v-8.4c0-1.4,0-2.2-0.1-2.6c-0.1-0.4-0.2-0.7-0.5-0.8
			c-0.3-0.2-0.8-0.2-1.7-0.2h-0.3v-0.6H270.1z"/>
		<path class="st0" d="M292.7,135.2h-6.5l-0.4,1.1c-0.7,1.6-1,2.6-1,3.1c0,0.5,0.2,0.9,0.5,1.2c0.3,0.3,0.8,0.4,1.3,0.4v0.6h-5.1
			v-0.6c0.8-0.1,1.3-0.4,1.7-0.8c0.4-0.4,0.8-1.3,1.3-2.6c0-0.1,0.2-0.6,0.6-1.5l5-11.9h0.5l5.7,13.6l0.8,1.8c0.2,0.4,0.4,0.7,0.7,1
			s0.7,0.4,1.3,0.4v0.6h-6.7v-0.6c0.8,0,1.4-0.1,1.7-0.2c0.3-0.1,0.4-0.4,0.4-0.7c0-0.2-0.2-0.7-0.6-1.7L292.7,135.2z M292.5,134.6
			l-3-7.3l-3,7.3H292.5z"/>
		<path class="st0" d="M328.2,141.5h-4.6c-0.8-0.6-2.1-2.1-3.8-4.5c-0.5-0.8-1.1-1.5-1.7-2.2c-0.6-0.7-1-1.1-1.2-1.3
			c-0.2-0.2-0.6-0.2-1-0.2h-0.7v3.8c0,1.3,0,2.2,0.1,2.6c0.1,0.4,0.2,0.7,0.5,0.9c0.3,0.2,0.8,0.3,1.6,0.3h0.8v0.6h-8.2v-0.6h0.6
			c0.7,0,1.2-0.1,1.5-0.3c0.3-0.2,0.5-0.5,0.5-0.9c0.1-0.4,0.1-1.3,0.1-2.7v-8.4c0-1.4,0-2.2-0.1-2.6c-0.1-0.4-0.2-0.7-0.5-0.8
			c-0.3-0.2-0.8-0.2-1.7-0.2h-0.3v-0.6l2.4-0.1c1.6-0.1,2.9-0.1,3.9-0.1c1.6,0,3,0.2,4,0.5c1,0.3,1.9,0.8,2.5,1.5
			c0.6,0.7,0.9,1.5,0.9,2.5c0,1.1-0.4,2.1-1.2,2.9c-0.8,0.8-2,1.3-3.6,1.5c0.7,0.3,1.9,1.6,3.5,3.7c1.3,1.7,2.3,2.9,3.1,3.4
			c0.7,0.5,1.6,0.8,2.6,0.9V141.5z M315.3,132.7c0.6,0,1.3,0,2-0.1c0.7,0,1.3-0.1,1.8-0.3c0.5-0.2,0.9-0.4,1.2-0.7
			c0.3-0.3,0.5-0.7,0.7-1.1c0.2-0.5,0.3-1.1,0.3-1.7c0-1.2-0.3-2.2-0.9-2.9c-0.6-0.7-1.9-1.1-3.9-1.1c-0.3,0-0.7,0-1.1,0.1V132.7z"
			/>
		<path class="st0" d="M348.5,138.6l6.2-14.2h5.3v0.6h-0.6c-0.8,0-1.4,0.1-1.7,0.2c-0.3,0.1-0.4,0.4-0.5,0.8
			c-0.1,0.4-0.1,1.3-0.1,2.7v8.4c0,1.3,0,2.2,0.1,2.6c0.1,0.4,0.2,0.7,0.5,0.9c0.3,0.2,0.8,0.3,1.6,0.3h0.8v0.6h-8.2v-0.6h0.6
			c0.7,0,1.2-0.1,1.5-0.3c0.3-0.2,0.5-0.5,0.5-0.9c0.1-0.4,0.1-1.3,0.1-2.7v-10.9l-6.8,15.4h-0.6l-6.8-15.4v10c0,1.4,0,2.3,0.1,2.8
			s0.3,0.9,0.8,1.3c0.4,0.4,1.1,0.6,1.8,0.6v0.6H337v-0.6c0.7,0,1.3-0.2,1.8-0.6c0.5-0.4,0.7-0.8,0.8-1.3s0.2-1.5,0.2-2.9v-7.5
			c0-1.4,0-2.2-0.1-2.6c-0.1-0.4-0.2-0.7-0.5-0.8c-0.3-0.2-0.8-0.2-1.7-0.2H337v-0.6h5.2L348.5,138.6z"/>
	</g>
</g>
</svg>
