<?xml version="1.0" encoding="utf-8"?>
<!-- Generator: Adobe Illustrator 25.1.0, SVG Export Plug-In . SVG Version: 6.00 Build 0)  -->
<svg version="1.1" id="Layer_1" xmlns="http://www.w3.org/2000/svg" xmlns:xlink="http://www.w3.org/1999/xlink" x="0px" y="0px"
	 viewBox="0 0 360 360" style="enable-background:new 0 0 360 360;" xml:space="preserve">
<style type="text/css">
	.st0{fill:#BBDFEB;}
	.st1{fill:#F6C4DA;}
	.st2{clip-path:url(#SVGID_2_);}
</style>
<g>
	<polygon class="st0" points="299.4,97.5 221.9,52.9 206.5,27.6 153.5,27.6 138.1,52.9 60.6,97.5 18.3,335.6 60.6,335.6 95.9,192 
		116.6,328.7 243.4,328.7 264.1,192 299.4,335.6 341.7,335.6 	"/>
	<path class="st0" d="M337.6,92.8l-7.2-4c3.3-19.8-4.5-40.2-21-52.6c0.1-0.1,0.2-0.3,0.3-0.5c2.1-3.7,0.7-8.4-3-10.4
		c-3.7-2.1-8.4-0.7-10.4,3c-0.1,0.2-0.2,0.3-0.2,0.5c-22.5-8.6-48.1-1.4-62.7,17.6L311.9,90l15.9,8.8l9,5L337.6,92.8z"/>
	<polygon class="st1" points="87.3,82.1 243.3,328.7 252.9,265.5 123.6,61.2 	"/>
	<g>
		<defs>
			<polygon id="SVGID_1_" points="299.4,97.5 221.9,52.9 206.5,27.6 153.5,27.6 138.1,52.9 60.6,97.5 18.3,335.6 60.6,335.6 
				95.9,192 116.6,328.7 243.4,328.7 264.1,192 299.4,335.6 341.7,335.6 			"/>
		</defs>
		<clipPath id="SVGID_2_">
			<use xlink:href="#SVGID_1_"  style="overflow:visible;"/>
		</clipPath>
		<g class="st2">
			<g>
				
					<rect x="9.6" y="273" transform="matrix(0.9845 0.1756 -0.1756 0.9845 50.9751 -4.0828)" class="st1" width="77.8" height="25.9"/>
				
					<rect x="16.9" y="220.6" transform="matrix(0.9845 0.1756 -0.1756 0.9845 41.8899 -6.1662)" class="st1" width="77.8" height="25.9"/>
				
					<rect x="19.1" y="167.9" transform="matrix(0.9845 0.1756 -0.1756 0.9845 32.6669 -7.3792)" class="st1" width="77.8" height="25.9"/>
			</g>
			<g>
				
					<rect x="272.6" y="273" transform="matrix(-0.9845 0.1756 -0.1756 -0.9845 668.4503 512.7209)" class="st1" width="77.8" height="25.9"/>
				
					<rect x="265.4" y="220.6" transform="matrix(-0.9845 0.1756 -0.1756 -0.9845 644.91 410.0676)" class="st1" width="77.8" height="25.9"/>
				
					<rect x="263.2" y="167.9" transform="matrix(-0.9845 0.1756 -0.1756 -0.9845 631.2045 305.8583)" class="st1" width="77.8" height="25.9"/>
			</g>
		</g>
	</g>
</g>
</svg>
