<?xml version="1.0" encoding="utf-8"?>
<!-- Generator: Adobe Illustrator 25.1.0, SVG Export Plug-In . SVG Version: 6.00 Build 0)  -->
<svg version="1.1" id="Layer_1" xmlns="http://www.w3.org/2000/svg" xmlns:xlink="http://www.w3.org/1999/xlink" x="0px" y="0px"
	 viewBox="0 0 3000 373.7" style="enable-background:new 0 0 3000 373.7;" xml:space="preserve">
<style type="text/css">
	.st0{fill:url(#SVGID_1_);}
	.st1{fill:url(#SVGID_2_);}
	.st2{fill:url(#SVGID_3_);}
	.st3{fill:url(#SVGID_4_);}
	.st4{fill:url(#SVGID_5_);}
	.st5{fill:url(#SVGID_6_);}
	.st6{fill:url(#SVGID_7_);}
	.st7{fill:url(#SVGID_8_);}
	.st8{fill:url(#SVGID_9_);}
</style>
<g>
	<radialGradient id="SVGID_1_" cx="953.4474" cy="-114.8763" r="1540.1007" gradientUnits="userSpaceOnUse">
		<stop  offset="0.1511" style="stop-color:#F4F1C4"/>
		<stop  offset="0.2622" style="stop-color:#F4DAC3"/>
		<stop  offset="1" style="stop-color:#BBDFEB"/>
	</radialGradient>
	<path class="st0" d="M49.4,111.9c0,9.4,2.5,16.3,12.9,24.3l82.7,59.4c15.3,10.9,21.8,19.3,21.8,37.6V342
		c0,20.3-15.3,31.7-38.6,31.7H40.5c-25.7,0-40.6-18.3-40.6-34.2V245c0-4.5,2-6.9,6.4-6.9c4.9,0,38.1,23.8,38.1,23.8
		c3.5,2.5,5,5.9,5,14.4v47.5c0,6.4,5,10.4,9.4,10.4h48c7.4,0,10.4-3.5,10.4-10.9v-70.3c0-8.9-3.5-16.3-12.4-22.8l-81.7-58.9
		C8.8,160.9-0.1,152.4-0.1,134.1V31.7C-0.1,11.4,15.2,0,38.5,0h87.6c25.7,0,40.6,18.3,40.6,34.1v79.7c0,4.5-2,6.9-6.4,6.9
		c-5,0-38.1-23.8-38.1-23.8c-3.5-2.5-4.9-5.9-4.9-14.4V50c0-6.4-4-10.4-9.4-10.4h-48c-7.4,0-10.4,3.5-10.4,10.9V111.9z"/>
	<radialGradient id="SVGID_2_" cx="953.4474" cy="-114.8763" r="1540.1007" gradientUnits="userSpaceOnUse">
		<stop  offset="0.1511" style="stop-color:#F4F1C4"/>
		<stop  offset="0.2622" style="stop-color:#F4DAC3"/>
		<stop  offset="1" style="stop-color:#BBDFEB"/>
	</radialGradient>
	<path class="st1" d="M477.7,39.6c0-14.4-21.3-28.2-21.3-34.6c0-3.5,2-4.9,5.4-4.9H543c3.5,0,5.4,1.5,5.4,4.9
		c0,6.4-21.3,20.3-21.3,34.6v294.5c0,14.4,21.3,28.2,21.3,34.6c0,3.5-2,5-5.4,5h-81.2c-3.5,0-5.4-1.5-5.4-5
		c0-6.4,21.3-20.3,21.3-34.6v-81.2c0-4-1.5-5.9-4-5.9c-2,0-4.5,1.5-9.9,4.5L382.7,293c-3.5,2-5,4.5-5,5.9v35.1
		c0,14.4,21.3,28.2,21.3,34.6c0,3.5-2,5-5.4,5h-81.2c-3.5,0-5.4-1.5-5.4-5c0-6.4,21.3-20.3,21.3-34.6V39.6
		c0-14.4-21.3-28.2-21.3-34.6c0-3.5,2-4.9,5.4-4.9h81.2c3.5,0,5.4,1.5,5.4,4.9c0,6.4-21.3,20.3-21.3,34.6v197.5c0,2.5,0.5,3.5,2,3.5
		s4.9-2,4.9-2l89.1-44.5c3-1.5,4-4,4-6.9V39.6z"/>
	<radialGradient id="SVGID_3_" cx="953.4474" cy="-114.8763" r="1540.1007" gradientUnits="userSpaceOnUse">
		<stop  offset="0.1511" style="stop-color:#F4F1C4"/>
		<stop  offset="0.2622" style="stop-color:#F4DAC3"/>
		<stop  offset="1" style="stop-color:#BBDFEB"/>
	</radialGradient>
	<path class="st2" d="M869.4,0c5.4,0,6.9,1.5,6.9,4.9c0,4-12.9,22.3-12.9,31.7c0,12.9,65.8,276.2,68.8,287.6
		c6.4,25.2,26.7,40.1,26.7,44.5c0,4-2,5-7.4,5h-77.2c-4,0-7.9-1-7.9-5c0-4.5,18.8-19.8,18.8-26.7c0-6.9-15.8-65.3-17.3-71.3
		c-1-3-2-4-4.5-4c-1.5,0-5,1-9.9,3.5l-84.1,47c-4.5,2.5-6.9,4-6.9,7.9v7.9c0,15.3,18.3,33.7,18.3,35.6c0,3.5-1.5,5-6.9,5h-81.7
		c-3.5,0-5.4-1.5-5.4-5c0-4.9,19.8-20.8,23.8-35.1c4-14.4,71.3-287.6,71.3-297c0-9.4-12.9-27.7-12.9-31.7c0-3.5,1.5-4.9,6.9-4.9
		H869.4z M825.8,81.7c0,0-1-3.5-4-3.5c-2.5,0-3.5,3.5-3.5,3.5l-38.1,173.2c0,1.5,0.5,2.5,1.5,2.5c0.5,0,1.5-0.5,2.5-1
		c13.9-7.9,55.4-30.2,67.3-37.6c2-1.5,3-2.5,3-4.5c0-1-1-5-1-5L825.8,81.7z"/>
	<radialGradient id="SVGID_4_" cx="953.4474" cy="-114.8763" r="1540.1007" gradientUnits="userSpaceOnUse">
		<stop  offset="0.1511" style="stop-color:#F4F1C4"/>
		<stop  offset="0.2622" style="stop-color:#F4DAC3"/>
		<stop  offset="1" style="stop-color:#BBDFEB"/>
	</radialGradient>
	<path class="st3" d="M1297.2,373.7c-7.4,0-10.9-5-16.3-14.8l-105.4-220.7c-2.5-5-3-6.4-5.4-6.4c-2,0-2.5,1.5-2.5,5.4v197
		c0,14.4,21.3,28.2,21.3,34.6c0,3.5-2,5-5.4,5h-78.7c-3.5,0-5.4-1.5-5.4-5c0-6.4,21.3-20.3,21.3-34.6V39.6
		c0-14.4-21.3-28.2-21.3-34.6c0-3.5,2-4.9,5.4-4.9h56.4c7.4,0,11.9,4.9,16.3,14.8l108.4,239.1c1,2,2,4,3.5,4s1.5-3,1.5-3V39.6
		c0-14.4-21.3-28.2-21.3-34.6c0-3.5,2-4.9,5.4-4.9h78.7c3.5,0,5.4,1.5,5.4,4.9c0,6.4-21.3,20.3-21.3,34.6v324.2c0,4.9-2,9.9-9.4,9.9
		H1297.2z"/>
	<radialGradient id="SVGID_5_" cx="953.4474" cy="-114.8763" r="1540.1007" gradientUnits="userSpaceOnUse">
		<stop  offset="0.1511" style="stop-color:#F4F1C4"/>
		<stop  offset="0.2622" style="stop-color:#F4DAC3"/>
		<stop  offset="1" style="stop-color:#BBDFEB"/>
	</radialGradient>
	<path class="st4" d="M1629.9,50c0-6.4-4.9-10.4-9.4-10.4h-57.9c-7.4,0-10.4,3.5-10.4,10.9v272.7c0,7.4,3,10.9,10.4,10.9h57.9
		c4.5,0,9.4-4,9.4-10.4v-47.5c0-8.4,1.5-11.9,5-14.4c0,0,33.2-23.8,38.1-23.8c4.5,0,6.4,2.5,6.4,6.9v94.5
		c0,15.8-14.8,34.2-40.6,34.2h-97.5c-23.3,0-38.6-11.4-38.6-31.7V31.7c0-20.3,15.3-31.7,38.6-31.7h97.5c25.7,0,40.6,18.3,40.6,34.1
		v48.5c0,8.4-1.5,11.9-4.9,14.4c0,0-33.2,23.8-38.1,23.8c-4.5,0-6.4-2.5-6.4-6.9V50z"/>
	<radialGradient id="SVGID_6_" cx="953.4474" cy="-114.8763" r="1540.1007" gradientUnits="userSpaceOnUse">
		<stop  offset="0.1511" style="stop-color:#F4F1C4"/>
		<stop  offset="0.2622" style="stop-color:#F4DAC3"/>
		<stop  offset="1" style="stop-color:#BBDFEB"/>
	</radialGradient>
	<path class="st5" d="M1963.1,49.5c0-5.9-4-9.9-8.4-9.9h-58.4c-4.5,0-6.9,2.5-6.9,7.9V197l62.9-38.1c5-3,7.9-5,10.4-5
		c3,0,4.5,3,4.5,6.4V200c0,5.9-3.5,8.4-10.4,12.9l-67.3,40.6v72.8c0,5,3,7.9,7.4,7.9h56.9c4.5,0,9.4-4,9.4-10.4V291
		c0-8.4,1.5-11.9,5-14.4c0,0,33.2-21.3,38.1-21.3c4.5,0,6.4,2.5,6.4,6.9v97.5c0,8.9-4.5,13.9-14.8,13.9H1824c-3.5,0-5.4-1.5-5.4-5
		c0-6.4,21.3-20.3,21.3-34.6V39.6c0-14.4-21.3-28.2-21.3-34.6c0-3.5,2-4.9,5.4-4.9h173.2c10.9,0,15.3,4.9,15.3,11.9v55.9
		c0,8.4-1.5,11.9-5,14.4c0,0-33.2,23.8-38.1,23.8c-4.5,0-6.4-2.5-6.4-6.9V49.5z"/>
	<radialGradient id="SVGID_7_" cx="953.4474" cy="-114.8763" r="1540.1007" gradientUnits="userSpaceOnUse">
		<stop  offset="0.1511" style="stop-color:#F4F1C4"/>
		<stop  offset="0.2622" style="stop-color:#F4DAC3"/>
		<stop  offset="1" style="stop-color:#BBDFEB"/>
	</radialGradient>
	<path class="st6" d="M2275.3,334.1c4.5,0,9.4-4,9.4-10.4V291c0-8.4,1.5-11.9,5-14.4c0,0,33.2-23.8,38.1-23.8c4.5,0,6.4,2.5,6.4,6.9
		v100c0,8.9-4.5,13.9-14.9,13.9h-158.9c-3.5,0-5.4-1.5-5.4-5c0-6.4,21.3-20.3,21.3-34.6V39.6c0-14.4-21.3-28.2-21.3-34.6
		c0-3.5,2-4.9,5.4-4.9h81.2c3.5,0,5.4,1.5,5.4,4.9c0,6.4-21.3,20.3-21.3,34.6v283.6c0,7.4,3,10.9,10.4,10.9H2275.3z"/>
	<radialGradient id="SVGID_8_" cx="953.4474" cy="-114.8763" r="1540.1007" gradientUnits="userSpaceOnUse">
		<stop  offset="0.1511" style="stop-color:#F4F1C4"/>
		<stop  offset="0.2622" style="stop-color:#F4DAC3"/>
		<stop  offset="1" style="stop-color:#BBDFEB"/>
	</radialGradient>
	<path class="st7" d="M2619.4,373.7h-97.5c-23.3,0-38.6-11.4-38.6-31.7V31.7c0-20.3,15.3-31.7,38.6-31.7h97.5
		c25.7,0,40.6,18.3,40.6,34.1v305.4C2660,355.4,2645.2,373.7,2619.4,373.7z M2601.1,39.6h-57.9c-7.4,0-10.4,3.5-10.4,10.9v272.7
		c0,7.4,3,10.9,10.4,10.9h57.9c4.5,0,9.4-4,9.4-10.4V50C2610.5,43.6,2605.6,39.6,2601.1,39.6z"/>
	<radialGradient id="SVGID_9_" cx="953.4474" cy="-114.8763" r="1540.1007" gradientUnits="userSpaceOnUse">
		<stop  offset="0.1511" style="stop-color:#F4F1C4"/>
		<stop  offset="0.2622" style="stop-color:#F4DAC3"/>
		<stop  offset="1" style="stop-color:#BBDFEB"/>
	</radialGradient>
	<path class="st8" d="M2953.8,4.9c14.4,0,35.6-4.9,42.1-4.9c3.5,0,4.9,2,4.9,5.4v62.4c0,3.5-1.5,5.4-4.9,5.4
		c-3.5,0-6.4-4.5-18.8-18.8c-7.9-9.4-20.3-10.4-40.6-10.4c-4.9,0-8.4,4-8.4,8.4v281.6c0,14.4,21.3,28.2,21.3,34.6c0,3.5-2,5-5.4,5
		h-81.2c-3.5,0-5.4-1.5-5.4-5c0-6.4,21.3-20.3,21.3-34.6V52.5c0-4.5-3.5-8.4-8.4-8.4c-20.3,0-32.7,1-40.6,10.4
		c-12.4,14.4-15.3,18.8-18.8,18.8c-3.5,0-4.9-2-4.9-5.4V5.4c0-3.5,1.5-5.4,4.9-5.4c6.4,0,27.7,4.9,42.1,4.9H2953.8z"/>
</g>
</svg>
