<?xml version="1.0" encoding="utf-8"?>
<!-- Generator: Adobe Illustrator 25.1.0, SVG Export Plug-In . SVG Version: 6.00 Build 0)  -->
<svg version="1.1" id="Logo_FIXED" xmlns="http://www.w3.org/2000/svg" xmlns:xlink="http://www.w3.org/1999/xlink" x="0px" y="0px"
	 viewBox="0 0 400 324" style="enable-background:new 0 0 400 324;" xml:space="preserve">
<style type="text/css">
	.st0{fill:none;}
	.st1{fill:#BAE0EE;}
</style>
<rect y="-76" class="st0" width="400" height="400"/>
<path class="st1" d="M126,324c150.5,0,232.8-124.7,232.8-232.8c0-3.5,0-7.1-0.2-10.6c16-11.6,29.8-25.9,40.8-42.3
	c-14.9,6.6-30.8,11-47,12.9c17.1-10.2,29.9-26.3,36-45.2c-16.1,9.5-33.6,16.2-51.9,19.9c-31-32.9-82.8-34.5-115.7-3.6
	c-21.2,20-30.3,49.8-23.7,78.2C131.2,97.1,69.9,66,28.4,14.9C6.7,52.3,17.8,100.1,53.7,124.1c-13-0.4-25.8-3.9-37.1-10.2
	c0,0.3,0,0.7,0,1c0,38.9,27.5,72.5,65.6,80.2c-12,3.3-24.7,3.8-36.9,1.4c10.7,33.3,41.4,56.2,76.4,56.8
	c-29,22.8-64.8,35.1-101.6,35.1c-6.5,0-13-0.4-19.5-1.2C38,311.3,81.6,324,126,324"/>
</svg>
